<svg width="40" height="40" viewBox="0 0 40 40" fill="none" xmlns="http://www.w3.org/2000/svg">
<path fill-rule="evenodd" clip-rule="evenodd" d="M19.6667 3C10.4619 3 3 10.4619 3 19.6667C3 28.8713 10.4619 36.3333 19.6667 36.3333C28.8713 36.3333 36.3333 28.8713 36.3333 19.6667C36.3333 10.4619 28.8713 3 19.6667 3ZM6.33333 19.6667C6.33333 12.3029 12.3029 6.33333 19.6667 6.33333C27.0305 6.33333 33 12.3029 33 19.6667C33 27.0305 27.0305 33 19.6667 33C12.3029 33 6.33333 27.0305 6.33333 19.6667Z" fill="#35524A"/>
<path d="M15.9088 13.5911C15.2688 12.9511 14.2311 12.9511 13.5911 13.5911C12.9511 14.2311 12.9511 15.2688 13.5911 15.9088L17.3489 19.6666L13.5911 23.4244C12.9511 24.0644 12.9511 25.1022 13.5911 25.7422C14.2311 26.3822 15.2688 26.3822 15.9088 25.7422L19.6666 21.9844L23.4244 25.7422C24.0644 26.3822 25.1022 26.3822 25.7422 25.7422C26.3822 25.1022 26.3822 24.0644 25.7422 23.4244L21.9844 19.6666L25.7422 15.9088C26.3822 15.2688 26.3822 14.2311 25.7422 13.5911C25.1022 12.9511 24.0644 12.9511 23.4244 13.5911L19.6666 17.3489L15.9088 13.5911Z" fill="#35524A"/>
</svg>
