<svg width="40" height="40" viewBox="0 0 40 40" fill="none" xmlns="http://www.w3.org/2000/svg">
<path d="M10.9993 18.9957C10.9993 14.452 10.9993 12.1802 12.4052 10.7687C13.8111 9.35712 16.0738 9.35712 20.5993 9.35712H25.3993C29.9248 9.35712 32.1875 9.35712 33.5935 10.7687C34.9993 12.1802 34.9993 14.452 34.9993 18.9957V27.0278C34.9993 31.5715 34.9993 33.8433 33.5935 35.2549C32.1875 36.6664 29.9248 36.6663 25.3993 36.6663H20.5993C16.0738 36.6663 13.8111 36.6664 12.4052 35.2549C10.9993 33.8433 10.9993 31.5715 10.9993 27.0278V18.9957Z" fill="#35524A"/>
<path opacity="0.5" d="M6.95262 5.28596C5 7.23859 5 10.3813 5 16.6667V20C5 26.2853 5 29.4282 6.95262 31.3807C7.98188 32.41 9.34183 32.8967 11.3184 33.1268C10.9993 31.7255 10.9993 29.7993 10.9993 27.0278V18.9957C10.9993 14.452 10.9993 12.1802 12.4052 10.7686C13.8111 9.35711 16.0739 9.35711 20.5993 9.35711H25.3993C28.1525 9.35711 30.0682 9.35711 31.4628 9.67491C31.2338 7.68578 30.7473 6.31924 29.714 5.28596C27.7615 3.33334 24.6187 3.33334 18.3333 3.33334C12.0479 3.33334 8.90525 3.33334 6.95262 5.28596Z" fill="#35524A"/>
</svg>
